PathFileType	4	(X/Y/Z)	C:/Users/opensim2020/Desktop/walking_exp_matlab/subject06_walking12_straigt_03.trc																																																																																																																																														
DataRate	CameraRate	NumFrames	NumMarkers	Units	OrigDataRate	OrigDataStartFrame	OrigNumFrames																																																																																																																																										
100	100	5	48	mm	100	2095	184																																																																																																																																										
Frame#	Time	LFHD			RFHD			LBHD			RBHD			C7			T10			CLAV			STRN			RBAK			LSHO			LUPA			LELB			LFRM			LWRA			LWRB			LFIN			RSHO			RUPA			RELB			RFRM			RWRA			RWRB			RFIN			LASI			RASI			LPSI			RPSI			LTHI			LKNE			LTIB			LANK			LHEE			LTOE			RTHI			RKNE			RTIB			RANK			RHEE			RTOE			*39			*40			*41			*42			*43			*44			*45			*46			*47		
		X1	Y1	Z1	X2	Y2	Z2	X3	Y3	Z3	X4	Y4	Z4	X5	Y5	Z5	X6	Y6	Z6	X7	Y7	Z7	X8	Y8	Z8	X9	Y9	Z9	X10	Y10	Z10	X11	Y11	Z11	X12	Y12	Z12	X13	Y13	Z13	X14	Y14	Z14	X15	Y15	Z15	X16	Y16	Z16	X17	Y17	Z17	X18	Y18	Z18	X19	Y19	Z19	X20	Y20	Z20	X21	Y21	Z21	X22	Y22	Z22	X23	Y23	Z23	X24	Y24	Z24	X25	Y25	Z25	X26	Y26	Z26	X27	Y27	Z27	X28	Y28	Z28	X29	Y29	Z29	X30	Y30	Z30	X31	Y31	Z31	X32	Y32	Z32	X33	Y33	Z33	X34	Y34	Z34	X35	Y35	Z35	X36	Y36	Z36	X37	Y37	Z37	X38	Y38	Z38	X39	Y39	Z39	X40	Y40	Z40	X41	Y41	Z41	X42	Y42	Z42	X43	Y43	Z43	X44	Y44	Z44	X45	Y45	Z45	X46	Y46	Z46	X47	Y47	Z47	X48	Y48	Z48
																																																																																																																																																	
24	0.23	-1054.76709	1637.43896	536.60693	-924.60583	1619.93335	549.12317	-1070.02966	1592.5177	671.95251	-941.48175	1580.30896	682.77582	-1018.32489	1429.25	687.64124	-1016.16266	1100.19604	730.81342	-1014.08112	1346.97119	580.19781	-1026.58643	1171.25134	545.79956	-947.47168	1258.33887	767.79059	-1176.02844	1387.24622	626.10541	-1256.35181	1194.70813	582.25867	-1274.93982	1088.93542	545.41632	-1290.62488	996.74921	429.04587	-1238.58789	966.40277	308.69464	-1276.50586	915.95178	341.32693	-1273.71912	899.29047	252.21069	-853.57043	1378.15015	631.37476	-774.73315	1190.1333	709.3382	-765.80176	1067.84985	724.82373	-749.62579	947.99304	740.75116	-777.75427	797.44196	718.22583	-741.64594	813.47339	773.25409	-738.84473	730.01367	758.32758	-1121.40906	932.25458	554.83752	-899.5072	944.29614	557.07959	-1092.37	968.39624	711.98077	-923.85309	969.76086	707.83197	-1174.49512	631.70697	683.71613	-1156.078	473.12534	731.67883	-1148.35669	246.44624	859.92548	-1104.26794	86.56749	927.24066	-1057.5144	82.54011	969.44116	-1110.47229	32.44403	794.54669	-826.82062	620.55817	551.9458	-853.29474	504.95407	504.23096	-850.31006	247.52147	462.85803	-886.50159	69.24588	399.43729	-936.49408	35.67564	421.39508	-872.73413	76.9256	241.1035	-1002.86078	1679.64819	639.02179	NaN	NaN	NaN	NaN	NaN	NaN	NaN	NaN	NaN	NaN	NaN	NaN	NaN	NaN	NaN	NaN	NaN	NaN	NaN	NaN	NaN	NaN	NaN	NaN
25	0.24	-1053.52515	1637.26855	527.25824	-923.39612	1619.63782	539.47803	-1068.57544	1591.94958	662.51758	-940.11847	1579.71655	673.0415	-1016.90479	1428.69592	677.77899	-1014.9165	1099.70203	720.1571	-1012.87836	1346.6134	570.00806	-1025.45654	1170.86829	535.35425	-946.2002	1257.6366	757.31177	-1174.75366	1386.82568	616.48956	-1254.83862	1194.02954	573.47687	-1273.0459	1088.09119	537.38348	-1288.60217	995.65588	421.00964	-1236.48608	965.47858	300.79013	-1274.1698	914.94244	333.34464	-1271.17993	898.09717	244.35576	-852.25031	1377.65686	621.11536	-773.64716	1189.49048	698.91931	-764.69629	1067.14844	713.90405	-748.66638	947.21942	729.46661	-776.87616	796.77899	706.34131	-740.95111	812.43115	761.55621	-738.27051	729.28455	746.46613	-1120.33728	931.63	544.40576	-898.26587	943.91522	546.17896	-1091.19824	967.80518	701.25513	-922.69562	969.83356	697.03162	-1173.64575	631.07159	673.90131	-1155.51941	472.60806	722.23682	-1148.65125	248.34064	854.89368	-1105.29236	89.77452	925.60559	-1058.69861	86.64149	968.03729	-1110.7002	32.72966	793.65747	-826.17438	621.32318	540.3374	-852.91235	506.10074	492.42401	-850.16425	246.33209	455.31973	-887.35333	66.53558	397.43481	-937.02759	33.57014	420.58508	-874.48621	71.11176	239.43922	-1001.39905	1679.12817	629.69232	NaN	NaN	NaN	NaN	NaN	NaN	NaN	NaN	NaN	NaN	NaN	NaN	NaN	NaN	NaN	NaN	NaN	NaN	NaN	NaN	NaN	NaN	NaN	NaN
26	0.25	-1052.27832	1637.28992	517.8775	-922.01257	1619.56628	529.8551	-1067.06055	1591.48499	653.04327	-938.54968	1579.19604	663.30023	-1015.39624	1428.30139	667.83368	-1013.40228	1099.29016	709.23895	-1011.55835	1346.40247	559.77362	-1024.23193	1170.74561	524.65826	-944.77765	1257.05969	746.7569	-1173.27075	1386.69092	606.64832	-1253.22559	1193.45776	564.63458	-1271.20911	1087.20911	529.29169	-1286.63013	994.3075	413.4313	-1234.37048	964.04004	293.18039	-1272.00537	913.44513	325.92242	-1268.72791	896.23218	236.89871	-850.86652	1377.32471	610.72534	-772.33466	1188.95361	688.03925	-763.48889	1066.51477	702.71039	-747.58313	946.52502	717.7998	-775.96252	796.24042	694.01361	-740.05225	811.62585	749.33435	-737.42767	728.47101	733.6842	-1119.40942	931.22919	533.92548	-897.1485	944.18427	534.48505	-1089.87756	967.51123	690.48944	-921.4632	969.922	685.6283	-1172.63977	630.52228	663.80414	-1154.89014	472.15366	712.27441	-1148.8269	250.45331	849.20013	-1106.20239	93.34114	923.61963	-1059.78284	91.18547	966.24365	-1110.80432	33.00403	792.91852	-825.77454	622.28735	528.40521	-853.09698	507.22281	480.60513	-850.46472	245.16832	448.55719	-888.65906	64.63897	395.82855	-938.4295	33.63956	419.16327	-876.31354	63.42047	237.55231	-999.93329	1678.75391	620.35889	NaN	NaN	NaN	NaN	NaN	NaN	NaN	NaN	NaN	NaN	NaN	NaN	NaN	NaN	NaN	NaN	NaN	NaN	NaN	NaN	NaN	NaN	NaN	NaN
27	0.26	-1051.09888	1637.63171	508.53088	-920.6474	1619.97998	520.08893	-1065.41028	1591.33105	643.52515	-936.7951	1578.98462	653.54993	-1013.66528	1428.22864	658.03033	-1011.92834	1099.04443	698.04578	-1010.11438	1346.66321	549.43561	-1022.93268	1170.97949	513.91034	-943.1297	1256.5603	736.31152	-1171.85352	1386.51245	597.01636	-1251.56592	1193.01746	555.87244	-1269.40515	1086.34314	521.55133	-1284.60791	992.78217	406.11404	-1232.38403	962.1239	286.02795	-1269.80579	911.62128	318.99243	-1266.38599	893.77759	230.04167	-849.25171	1377.25708	600.26886	-770.8429	1188.45654	676.89032	-762.11908	1065.96655	691.24036	-746.40326	945.90222	705.83295	-775.00323	795.82654	681.35919	-739.08978	810.92163	736.75946	-736.62177	727.69696	720.45813	-1118.5448	931.11871	523.14008	-896.01569	944.38354	522.94427	-1088.5238	967.27765	679.80658	-919.60925	970.37769	674.52966	-1171.5625	630.06329	653.29657	-1153.79688	471.71515	701.81335	-1148.73279	252.8382	843.13141	-1107.23352	97.37234	921.091	-1061.09143	96.28048	963.92322	-1111.14868	32.7709	793.38953	-826.40253	623.36255	516.18127	-854.40985	508.41754	469.53259	-850.9975	244.96919	441.61807	-887.78619	65.48289	391.3046	-937.64996	36.13993	415.73398	-876.77014	56.5697	232.24774	-998.40204	1678.70581	611.07404	NaN	NaN	NaN	NaN	NaN	NaN	NaN	NaN	NaN	NaN	NaN	NaN	NaN	NaN	NaN	NaN	NaN	NaN	NaN	NaN	NaN	NaN	NaN	NaN
28	0.27	-1049.81567	1638.72839	499.26794	-919.21338	1621.17444	510.27454	-1063.70068	1591.78882	633.97357	-935.01941	1579.39026	643.4967	-1011.82098	1428.83618	647.97473	-1011.02094	1099.31958	687.05493	-1008.59631	1347.56189	539.25104	-1021.72601	1171.6864	503.63315	-941.35999	1256.35803	725.84515	-1170.53552	1387.00195	587.13629	-1249.77917	1192.63916	547.04919	-1267.63464	1085.55493	513.8103	-1282.70032	991.08392	399.23529	-1230.42334	959.72943	279.19241	-1267.77783	909.38049	312.68341	-1264.09778	890.70355	223.87852	-847.50189	1377.52368	589.84711	-769.12451	1188.20935	665.61011	-760.57758	1065.6228	679.51477	-745.15344	945.41547	693.51019	-774.04321	795.60278	668.34619	-737.98584	810.4455	723.81024	-735.62207	727.50232	707.44299	-1117.69775	931.32458	512.48254	-895.04596	945.16663	511.3107	-1087.23901	967.42059	668.95093	-918.12408	971.52106	663.20068	-1170.26367	629.81659	642.30731	-1152.33875	471.47409	690.51318	-1148.28235	255.5724	836.0827	-1108.09949	102.09436	917.97406	-1062.25647	102.35402	961.06042	-1111.02734	32.94802	792.79938	-826.60864	624.74792	504.79202	-854.70697	510.06406	459.37573	-848.01984	246.55659	432.49454	-885.4848	65.90368	384.89752	-934.37262	38.28634	413.06946	-877.1189	52.96764	227.24686	-996.70398	1679.35254	601.76392	NaN	NaN	NaN	NaN	NaN	NaN	NaN	NaN	NaN	NaN	NaN	NaN	NaN	NaN	NaN	NaN	NaN	NaN	NaN	NaN	NaN	NaN	NaN	NaN
